<svg version="1.1" id="Layer_1" xmlns="http://www.w3.org/2000/svg" xmlns:xlink="http://www.w3.org/1999/xlink" x="0px" y="0px"
	 width="100%" viewBox="0 0 512 512" enable-background="new 0 0 512 512" xml:space="preserve">
<path fill="#000000" opacity="1.000000" stroke="none" 
	d="
M358.000000,513.000000 
	C238.695663,513.000000 119.891312,513.000000 1.086973,513.000000 
	C1.057984,512.862366 1.003580,512.724731 1.003577,512.587097 
	C0.999988,342.128693 1.000000,171.670288 1.000000,1.105940 
	C171.554337,1.105940 342.108765,1.105940 512.831604,1.105940 
	C512.831604,171.666534 512.831604,342.333252 512.831604,513.000000 
	C461.474518,513.000000 409.987274,513.000000 358.000000,513.000000 
M176.971786,158.513199 
	C166.309647,167.247971 156.863815,177.107193 148.991150,188.460449 
	C133.445053,210.879623 124.833382,235.573807 125.136604,262.977478 
	C125.210098,269.619781 126.670456,276.305969 128.018524,282.863983 
	C132.192841,303.170807 143.809341,318.396667 161.482788,328.672699 
	C178.263672,338.429688 196.651520,342.623260 216.144089,342.032745 
	C240.079193,341.307678 253.497452,325.714783 255.818466,304.179779 
	C258.117920,282.844696 253.614258,262.237030 244.868637,242.757233 
	C238.163834,227.823074 236.591873,212.428635 241.152924,197.080460 
	C245.612091,182.075043 251.981659,167.636002 257.543671,152.960083 
	C261.564514,142.350616 264.868195,131.912231 263.257904,120.020950 
	C260.893219,102.558838 254.296204,86.966682 244.847412,72.533508 
	C237.875244,61.883438 230.157333,51.666122 222.112946,41.792709 
	C216.624008,35.055737 209.999283,29.244156 203.882385,23.018824 
	C203.161301,24.481714 203.229019,25.281357 203.504913,26.001217 
	C208.469116,38.953968 212.719269,52.003017 214.261719,65.976814 
	C215.714035,79.134132 214.679337,91.829369 211.206711,104.485893 
	C205.372131,125.750999 192.996582,142.860794 176.971786,158.513199 
M269.359344,236.950562 
	C272.584534,247.035248 275.840790,257.110138 279.026917,267.207153 
	C282.878784,279.414032 285.274353,291.703278 284.156616,304.729431 
	C282.976196,318.485931 278.568512,330.904388 271.227386,342.334656 
	C263.012329,355.125641 260.695984,368.836700 264.029968,383.500854 
	C269.949982,409.539215 294.495819,428.931702 321.162079,429.021881 
	C337.883118,429.078400 353.220551,424.010315 367.388306,415.764648 
	C383.604187,406.326935 393.787964,392.053162 398.078491,373.633850 
	C401.799652,357.658875 401.284058,341.754913 399.221436,325.551697 
	C395.846039,299.035583 380.374359,280.214813 361.623596,263.309082 
	C351.254486,253.960281 340.025604,245.557068 329.766510,236.096298 
	C316.908081,224.238449 310.776062,208.662201 309.186066,191.650497 
	C307.514160,173.762741 309.886963,156.083252 315.541992,138.944794 
	C317.482330,133.064194 319.544128,127.223686 322.010834,120.020515 
	C318.630920,122.726692 316.330231,124.307076 314.335327,126.208328 
	C300.914459,138.998962 288.173767,152.369003 278.877258,168.616150 
	C271.154846,182.112244 264.909515,196.242310 265.208771,212.058670 
	C265.361420,220.125198 267.674713,228.150864 269.359344,236.950562 
M146.657883,350.879639 
	C136.307144,343.009338 125.956413,335.139069 115.374374,327.092896 
	C111.856522,341.085724 111.819084,355.216309 114.746483,369.124023 
	C116.980522,379.737640 120.633888,390.074066 123.992851,400.424438 
	C129.530533,417.488434 138.903717,432.466522 150.541275,445.922272 
	C160.901962,457.901642 173.829605,466.943878 187.938248,473.887726 
	C211.155685,485.314575 235.900299,491.547089 261.760864,492.926544 
	C269.734711,493.351898 277.865875,493.813202 285.726501,492.766785 
	C303.133148,490.449585 320.088043,486.284119 335.385681,476.963654 
	C347.457703,469.608459 357.867157,460.491608 366.239227,449.117218 
	C367.361603,447.592377 367.657837,445.459534 368.909668,442.045319 
	C362.432739,443.662537 357.409912,444.423981 352.757904,446.172241 
	C339.697479,451.080322 326.527161,453.525787 312.406158,452.150024 
	C295.920685,450.543854 280.620178,445.873047 266.907806,436.840393 
	C251.616135,426.767395 239.681320,413.811462 234.714691,395.433105 
	C232.725571,388.072662 230.168350,380.807129 227.118134,373.826813 
	C226.172241,371.662170 222.905197,369.562073 220.435425,369.188904 
	C212.635345,368.010284 204.681091,367.898499 196.838150,366.947693 
	C179.353226,364.828033 162.581802,360.340210 146.657883,350.879639 
z"/>
<path fill="#D0122B" opacity="1.000000" stroke="none" 
	d="
M177.222382,158.257477 
	C192.996582,142.860794 205.372131,125.750999 211.206711,104.485893 
	C214.679337,91.829369 215.714035,79.134132 214.261719,65.976814 
	C212.719269,52.003017 208.469116,38.953968 203.504913,26.001217 
	C203.229019,25.281357 203.161301,24.481714 203.882385,23.018824 
	C209.999283,29.244156 216.624008,35.055737 222.112946,41.792709 
	C230.157333,51.666122 237.875244,61.883438 244.847412,72.533508 
	C254.296204,86.966682 260.893219,102.558838 263.257904,120.020950 
	C264.868195,131.912231 261.564514,142.350616 257.543671,152.960083 
	C251.981659,167.636002 245.612091,182.075043 241.152924,197.080460 
	C236.591873,212.428635 238.163834,227.823074 244.868637,242.757233 
	C253.614258,262.237030 258.117920,282.844696 255.818466,304.179779 
	C253.497452,325.714783 240.079193,341.307678 216.144089,342.032745 
	C196.651520,342.623260 178.263672,338.429688 161.482788,328.672699 
	C143.809341,318.396667 132.192841,303.170807 128.018524,282.863983 
	C126.670456,276.305969 125.210098,269.619781 125.136604,262.977478 
	C124.833382,235.573807 133.445053,210.879623 148.991150,188.460449 
	C156.863815,177.107193 166.309647,167.247971 177.222382,158.257477 
z"/>
<path fill="#D0122B" opacity="1.000000" stroke="none" 
	d="
M269.185364,236.572784 
	C267.674713,228.150864 265.361420,220.125198 265.208771,212.058670 
	C264.909515,196.242310 271.154846,182.112244 278.877258,168.616150 
	C288.173767,152.369003 300.914459,138.998962 314.335327,126.208328 
	C316.330231,124.307076 318.630920,122.726692 322.010834,120.020515 
	C319.544128,127.223686 317.482330,133.064194 315.541992,138.944794 
	C309.886963,156.083252 307.514160,173.762741 309.186066,191.650497 
	C310.776062,208.662201 316.908081,224.238449 329.766510,236.096298 
	C340.025604,245.557068 351.254486,253.960281 361.623596,263.309082 
	C380.374359,280.214813 395.846039,299.035583 399.221436,325.551697 
	C401.284058,341.754913 401.799652,357.658875 398.078491,373.633850 
	C393.787964,392.053162 383.604187,406.326935 367.388306,415.764648 
	C353.220551,424.010315 337.883118,429.078400 321.162079,429.021881 
	C294.495819,428.931702 269.949982,409.539215 264.029968,383.500854 
	C260.695984,368.836700 263.012329,355.125641 271.227386,342.334656 
	C278.568512,330.904388 282.976196,318.485931 284.156616,304.729431 
	C285.274353,291.703278 282.878784,279.414032 279.026917,267.207153 
	C275.840790,257.110138 272.584534,247.035248 269.185364,236.572784 
z"/>
<path fill="#D0122C" opacity="1.000000" stroke="none" 
	d="
M147.027435,350.945435 
	C162.581802,360.340210 179.353226,364.828033 196.838150,366.947693 
	C204.681091,367.898499 212.635345,368.010284 220.435425,369.188904 
	C222.905197,369.562073 226.172241,371.662170 227.118134,373.826813 
	C230.168350,380.807129 232.725571,388.072662 234.714691,395.433105 
	C239.681320,413.811462 251.616135,426.767395 266.907806,436.840393 
	C280.620178,445.873047 295.920685,450.543854 312.406158,452.150024 
	C326.527161,453.525787 339.697479,451.080322 352.757904,446.172241 
	C357.409912,444.423981 362.432739,443.662537 368.909668,442.045319 
	C367.657837,445.459534 367.361603,447.592377 366.239227,449.117218 
	C357.867157,460.491608 347.457703,469.608459 335.385681,476.963654 
	C320.088043,486.284119 303.133148,490.449585 285.726501,492.766785 
	C277.865875,493.813202 269.734711,493.351898 261.760864,492.926544 
	C235.900299,491.547089 211.155685,485.314575 187.938248,473.887726 
	C173.829605,466.943878 160.901962,457.901642 150.541275,445.922272 
	C138.903717,432.466522 129.530533,417.488434 123.992851,400.424438 
	C120.633888,390.074066 116.980522,379.737640 114.746483,369.124023 
	C111.819084,355.216309 111.856522,341.085724 115.374374,327.092896 
	C125.956413,335.139069 136.307144,343.009338 147.027435,350.945435 
z"/>
</svg>